<svg id="Слой_1" data-name="Слой 1" xmlns="http://www.w3.org/2000/svg" viewBox="0 0 150 190"><defs><style>.cls-1{fill-rule:evenodd;}</style></defs><title>Монтажная область 10</title><path class="cls-1" d="M64.48,149.22,63.63,146C59.8,138.39,50.08,127.91,33,122.93c2.27-8.88,7.54-11.43,15.28-9.74,1.39.3,2.89.82,5.4,1.57.47,1.18,2,4.27,2,4.27l2-.59c-.35-6.91-.87-17.62-.94-20.06A45.21,45.21,0,0,1,72.48,96c.74-11,1.55-24,1.63-29.21.12-8.06,13.82-8.58,13.69.44-.08,5.74,0,19.79.14,31,8.41,2.32,16.12,6.42,21.12,12.09l-6.89,34.63Z"/></svg>