<svg xmlns="http://www.w3.org/2000/svg"  viewBox="0 0 64 64" width="64px" height="64px" baseProfile="basic"><ellipse cx="31" cy="61" opacity=".3" rx="19" ry="3"/><path fill="#cd2e42" d="M59.971,19.824c1.373,0.775,1.373,2.73,0,3.505c-1.456,0.822-3.893,1.68-6.073,1.68	c-4.475,0-8.102-3.376-8.102-3.376s3.627-3.376,8.102-3.376C56.079,18.257,58.515,19.002,59.971,19.824z"/><path fill="#fd3c4f" d="M56.818,12.016c1.571-0.122,2.66,1.502,1.953,2.91c-0.752,1.498-2.483,3.788-4.296,5.006	c-3.717,2.497-8.611,1.714-8.611,1.714s1.134-4.833,4.852-7.33C52.527,13.099,55.15,12.145,56.818,12.016z"/><path fill="#98c900" d="M55.994,35.916c0-3.781-3.092-6.971-6.994-9.537C48.193,16.657,40.656,9.044,30.43,9.044	s-17.624,7.625-18.432,17.348C7.962,28.823,5,32.27,5,35.916c0,5.401,5.113,9.993,12.513,12.423c2.826,4.186,7.4,6.617,13.051,6.617	c5.382,0,10.226-2.701,13.051-6.617C50.881,45.909,55.994,41.317,55.994,35.916z"/><path fill="#fff" d="M30.43,14.044c2.529,0,4.596-1.899,4.917-4.349c-1.56-0.413-3.202-0.65-4.917-0.65 c-8.551,0-15.344,5.484-17.818,12.963c0.685,0.329,1.415,0.493,2.141,0.493c1.625,0,3.217-0.796,4.173-2.262 C21.494,16.302,25.687,14.044,30.43,14.044z" opacity=".3"/><path d="M55.994,35.916c0-1.73-0.687-3.377-1.673-4.748c-1.971,0.667-3.309,2.545-3.309,4.748 c0,2.798-3.606,5.885-8.972,7.68c-0.988,0.331-1.848,0.964-2.459,1.811c-2.025,2.807-5.48,4.55-9.016,4.55 c-2.52,0-4.581,1.884-4.914,4.321c1.522,0.445,3.166,0.679,4.914,0.679c5.382,0,10.226-2.701,13.051-6.617 C50.881,45.909,55.994,41.317,55.994,35.916z" opacity=".15"/><path fill="#fd3c4f" d="M47.3,18.767C45.43,17.916,42.644,17,39.78,17c-4.008,0-7.849,1.757-9.283,2.663	C28.96,18.727,25.304,17,21.295,17c-2.85,0-5.666,0.917-7.575,1.775C12.666,19.248,12,20.321,12,21.492l0,4.894	c1.253,0.763,3.897,2.108,7.471,2.485c0.794,0.084,1.589-0.175,2.193-0.706c2.175-1.914,5.324-3.122,8.836-3.122	c3.569,0,6.765,1.246,8.944,3.214c0.587,0.53,1.361,0.811,2.142,0.73c0.005,0,0.009-0.001,0.014-0.001	c3.418-0.357,5.975-1.672,7.4-2.599c0-1.62,0-3.274,0.001-4.913C49,20.31,48.344,19.243,47.3,18.767z"/><path fill="#fff" d="M24.539,22.161c0.614,0.395,0.614,1.283,0,1.678C23.689,24.387,22.419,25,21,25	s-2.689-0.613-3.539-1.161c-0.614-0.395-0.614-1.283,0-1.678C18.311,21.613,19.581,21,21,21C22.419,21,23.689,21.613,24.539,22.161z"/><circle cx="21" cy="23" r="2" fill="#9c34c2"/><path fill="#fff" d="M43.539,22.161c0.614,0.395,0.614,1.283,0,1.678C42.689,24.387,41.419,25,40,25	s-2.689-0.613-3.539-1.161c-0.614-0.395-0.614-1.283,0-1.678C37.311,21.613,38.581,21,40,21S42.689,21.613,43.539,22.161z"/><circle cx="40" cy="23" r="2" fill="#9c34c2"/><path fill="#548500" d="M30.515,44c-5.232,0-10.381-1.296-13.106-2.113c-1.087-0.326-1.677-1.503-1.29-2.578l0,0	c0.354-0.984,1.402-1.524,2.398-1.227c2.491,0.744,7.279,1.957,11.998,1.957c4.697,0,9.478-1.213,11.968-1.957	c0.996-0.297,2.044,0.243,2.398,1.227v0c0.387,1.075-0.202,2.252-1.289,2.578C40.868,42.704,35.726,44,30.515,44z"/><path fill="none" stroke="#fff" stroke-linecap="round" stroke-linejoin="round" stroke-miterlimit="10" stroke-width="3" d="M23.522,14.224c1.155-0.593,2.394-1.042,3.695-1.326"/></svg>