<svg id="Слой_1" data-name="Слой 1" xmlns="http://www.w3.org/2000/svg" viewBox="0 0 150 190"><title>Монтажная область 36</title><path d="M53.07,112.9c0,8.89,13.06,13.68,24,13.68,9.08,0,19.8-4.35,19.8-11.22,0-4.15-2.46-6.76-7.38-7.4-2,1.13-8.78,5.61-8.78,5.61l-3-4.38A10.48,10.48,0,0,0,83.3,99.7c0-6.35-4-10.37-12.37-11.78C72.73,101.38,53.07,101.74,53.07,112.9Zm56.38,24.8c6.88-8.85,2-17.52-7.19-19.6-2,9.57-12.09,14.57-25,14.57s-26.8-4.22-30.19-16.2C37.6,119,36,130.73,41.91,137.79,53.76,151.84,96.4,154.5,109.45,137.7ZM49.74,105.6l8.92-10.91C51.05,91,47.79,86.45,49.5,76.76L47,75.59C37.71,87.27,41.93,99.47,49.74,105.6Zm51.37-9.2c-6.93-3.94-9.45-8.69-9.45-12.8,0-8.75,12.29-11,14.47-4.07L101,84.39,115.7,97.62c1.92-18-6-28.39-15.77-28.39-9.55,0-14.48,6.46-14.48,14.87,0,6.88,2.78,13,12.82,18.69,18.27,10.3,22.19,22.33,16.91,34.23-6.2,14-25.06,16.92-39.8,16.92-.63,5.12,1.77,6.66,8.28,6.66,14.48,0,31.81-6.95,37.92-20.74C128.36,124.56,122.38,108.48,101.11,96.4Z"/></svg>