<svg id="Слой_1" data-name="Слой 1" xmlns="http://www.w3.org/2000/svg" viewBox="0 0 150 190"><defs><style>.cls-1{fill-rule:evenodd;}</style></defs><title>Монтажная область 35</title><path class="cls-1" d="M112.37,150.22c-8.66-6.71-63.46-8.68-74-.15-11-5.66-14.67-17.66,14.91-21.4l.36-3.86-4.78,0c-13,.09-14.59-15.77-4-19.66L49.49,82.1c1.37-11.36,9.45-20.93,23.74-20.93,15,0,23,10.24,23.65,24.37l4.12,19.6c9.88,3.79,8.67,19.3-3.81,19.39l-3.23,0,.6,4.11C125.52,132.61,123.3,145.8,112.37,150.22Zm-22.7-14.57-1.34-11.54L76,137.15l-2.89.31L59.42,124.17l-1,11.45C64.27,142,84.84,141.63,89.67,135.65Zm-16.44-69A18.52,18.52,0,0,0,54.75,85.23C54.75,104,56.51,113,64,120.36c3.45,0,6.7-.92,7.66-3.77l4.75,0c.81,2.9,4,3.62,7.43,3.47,6.62-7.35,7.88-16.49,7.88-34.8A18.56,18.56,0,0,0,73.23,66.66Zm1.71,42.12.41-6.81s6.12,5.18,11,5l.71,2.35-8.45,2.28Zm-14.65.56L61,107c4.83.16,11-5,11-5l.3,6.71-3.51,2.94Z"/></svg>