<svg id="Слой_1" data-name="Слой 1" xmlns="http://www.w3.org/2000/svg" viewBox="0 0 150 190"><defs><style>.cls-1{fill-rule:evenodd;}</style></defs><title>Монтажная область 42</title><path class="cls-1" d="M55.07,147.05l5.61-11.31,15.23,5.7,16-6.36-.63-8.37a64.6,64.6,0,0,1-8.77,6.45l-13.71.06c-1.93-1.17-3.66-2.24-5.2-3.27l2.61-5.27c1.3.8,2.74,1.61,4.31,2.48l10,0c9.49-5.51,13.75-8.74,13.75-27.91l-1.89-2.74-.59-16.1-33,.17-1.07,16.7-2.28,2c0,9.82,1.17,15.37,3.78,19.25a28.61,28.61,0,0,1,3-2.79l-2.93-4.11,3-1,7.43-6.29,10.74.22,7.78,6.36,2.92.91-4.51,5.06a30.72,30.72,0,0,0-16.68-2.12c-8.53,3.36-10.31,22.55-24.06,22.59-5.21,0-9.14-2.17-8.51-9.53.21-2.53.81-6.74.81-6.74l12.19-.16,1.21,4.93a16.83,16.83,0,0,0,3.82-3.09c-2.19-3-3.36-6.5-4-11.51C46,104.58,45.85,96.94,48.11,94,46.2,68.7,51.6,59.73,74.77,59.73S103,68.2,101.07,93.84c2.43,2.74,2.37,10.58-3.11,17.35A32,32,0,0,1,96,120l1.51,11.17,7.09,2.55-2.49,5.66,7.43,2.8,2.82-5.67,8.52,3-1.35,7.28Z"/></svg>