<svg xmlns="http://www.w3.org/2000/svg"  viewBox="0 0 64 64" width="64px" height="64px" baseProfile="basic"><path fill="#68e5fd" d="M56.572,27.239L50,23.109l2.597-9.576c0.194-0.716-0.386-1.405-1.12-1.331L43,13.055l-0.823-9.1	c-0.076-0.84-1.051-1.257-1.706-0.731L32,10.038l-8.472-6.814c-0.655-0.527-1.63-0.109-1.706,0.731L21,13.055l-8.477-0.852	c-0.734-0.074-1.314,0.615-1.12,1.331L14,23.109l-6.572,4.13c-0.66,0.414-0.66,1.38,0,1.795L14,33.164l-5.01,4.198	c-0.512,0.429-0.504,1.221,0.016,1.639L13,42.213v4.729c0,0.672,0.615,1.174,1.269,1.035L32,44.224l17.731,3.753	C50.385,48.115,51,47.614,51,46.941v-4.729l3.994-3.212c0.52-0.418,0.528-1.211,0.016-1.639L50,33.164l6.572-4.13	C57.232,28.619,57.232,27.654,56.572,27.239z"/><line x1="24.502" x2="24.897" y1="13.188" y2="8.817" fill="none" stroke="#fff" stroke-linecap="round" stroke-linejoin="round" stroke-miterlimit="10" stroke-width="3"/><path d="M56.572,27.239L50,23.109l1.303-4.803c-2.067-0.56-4.338,0.236-5.536,2.143 c-1.469,2.338-0.765,5.424,1.573,6.894l1.263,0.793L47.34,28.93c-1.354,0.851-2.219,2.297-2.328,3.893s0.551,3.146,1.777,4.173 l5.01,4.198c0.08,0.067,0.169,0.114,0.251,0.175l2.944-2.368c0.52-0.418,0.528-1.211,0.016-1.639L50,33.164l6.572-4.13 C57.232,28.619,57.232,27.654,56.572,27.239z" opacity=".15"/><path fill="#fff" d="M23.528,3.224c-0.655-0.527-1.63-0.109-1.706,0.731L21,13.055l-8.477-0.852 c-0.734-0.074-1.314,0.615-1.12,1.331L14,23.109l-4.224,2.655c0.91,1.449,2.504,2.347,4.221,2.347c0.433,0,0.874-0.057,1.312-0.176 c2.665-0.723,4.239-3.469,3.517-6.135l-1.099-4.049L20.5,18.03c1.333,0.134,2.656-0.27,3.684-1.12 c1.029-0.85,1.676-2.076,1.796-3.405l0.7-7.746L23.528,3.224z" opacity=".3"/><ellipse cx="32" cy="61" opacity=".3" rx="19" ry="3"/><circle cx="20" cy="38" r="4" fill="orange"/><circle cx="44" cy="38" r="4" fill="orange"/><path fill="#ffce29" d="M32,55L32,55c-6.627,0-12-5.373-12-12V28c0-6.627,5.373-12,12-12h0c6.627,0,12,5.373,12,12v15	C44,49.627,38.627,55,32,55z"/><path fill="#ffe691" d="M32,42L32,42c-1.105,0-2-0.895-2-2v-7h4v7C34,41.105,33.105,42,32,42z"/><circle cx="27" cy="33.001" r="5" fill="#fff"/><circle cx="37" cy="33.001" r="5" fill="#fff"/><circle cx="26.5" cy="33.5" r="1.5" fill="#9c34c2"/><circle cx="37.5" cy="32.5" r="1.5" fill="#9c34c2"/><path fill="none" stroke="#68e5fd" stroke-linecap="round" stroke-miterlimit="10" stroke-width="3" d="M24.5,26.5l6.343,0.615	c0.769,0.075,1.544,0.075,2.313,0L39.5,26.5"/><path fill="#548500" d="M30,46v1h-3v3.5c0,0.828,0.672,1.5,1.5,1.5s1.5-0.672,1.5-1.5V50h0.938	C32.077,50,33,49.077,33,47.938V46H30z"/><path fill="none" stroke="orange" stroke-linecap="round" stroke-miterlimit="10" stroke-width="3" d="M25.506,46.5l0.073-0.022	c4.246-1.296,8.713-1.288,12.955,0.022l0,0"/></svg>