<svg xmlns="http://www.w3.org/2000/svg"  viewBox="0 0 64 64" width="64px" height="64px" baseProfile="basic"><ellipse cx="32" cy="61" opacity=".3" rx="18" ry="3"/><circle cx="48.048" cy="27.143" r="4.048" fill="orange"/><circle cx="16.048" cy="27.143" r="4.048" fill="orange"/><path fill="#37d0ee" d="M43.247,9.762C38.922,9.762,36.923,5,32,5s-6.922,4.762-11.247,4.762	c-2.706,0-4.753,2.033-4.753,4.414s0.927,6.3,16,6.3s16-3.919,16-6.3S45.953,9.762,43.247,9.762z"/><path fill="#fff" d="M36.716,6.597C35.379,5.719,33.911,5,32,5c-4.923,0-6.922,4.762-11.247,4.762	c-1.947,0-3.539,1.06-4.287,2.537c0.871,1.468,2.455,2.463,4.286,2.463c3.705,0,6.28-1.854,8.16-3.208C30.447,10.45,31.155,10,32,10	C34.2,10,36.047,8.57,36.716,6.597z" opacity=".3"/><circle cx="32" cy="30" r="15.476" fill="#ffce29"/><circle cx="27.5" cy="25.5" r="2.5" fill="#9c34c2"/><circle cx="36.5" cy="25.5" r="2.5" fill="#9c34c2"/><path fill="#9c34c2" d="M55.552,42.166l-2.37-1.566l2.369-1.565c0.379-0.25,0.542-0.723,0.397-1.152	C55.921,37.803,53.192,30,44.105,30h-7.021c-0.553,0-1,0.447-1,1c0,1.449-1.641,3-4.084,3s-4.084-1.551-4.084-3c0-0.553-0.447-1-1-1	h-7.021c-9.087,0-11.815,7.803-11.843,7.882c-0.145,0.43,0.019,0.902,0.397,1.152l2.369,1.565l-2.37,1.566	C8.169,42.351,8,42.664,8,43s0.169,0.649,0.448,0.834l2.791,1.845l-1.858,2.764c-0.174,0.259-0.218,0.585-0.116,0.882	c0.102,0.296,0.335,0.527,0.633,0.625l2.944,0.974V53.8c0,0.368,0.202,0.706,0.526,0.881c0.324,0.174,0.718,0.156,1.024-0.047	l2.805-1.853l1.867,2.776c0.373,0.553,1.287,0.553,1.66,0l1.591-2.365l1.592,2.366c0.167,0.247,0.435,0.407,0.731,0.437	c0.294,0.024,0.591-0.075,0.803-0.285l2.927-2.901l2.928,2.901c0.391,0.387,1.018,0.387,1.408,0l2.928-2.901l2.927,2.901	C38.747,55.896,39,56,39.263,56c0.032,0,0.065-0.002,0.099-0.005c0.297-0.029,0.564-0.189,0.731-0.437l1.592-2.366l1.591,2.365	c0.373,0.553,1.287,0.553,1.66,0l1.867-2.776l2.805,1.853c0.306,0.203,0.699,0.221,1.024,0.047c0.324-0.175,0.526-0.513,0.526-0.881	v-2.877l2.944-0.974c0.298-0.098,0.531-0.329,0.633-0.625c0.102-0.297,0.058-0.623-0.116-0.882l-1.858-2.764l2.791-1.845	C55.831,43.649,56,43.336,56,43S55.831,42.351,55.552,42.166z"/><path d="M51.38,39.409c-0.344,0.521-3.261,3.981-3.522,5.289c-0.159,0.798-0.598,3.095-0.604,3.103	c-1.193,0.031-4.724,0.316-5.568,0.392c-1.658,0.147-3.22,0.828-4.148,2.209l-1.592,2.366c-0.049,0.073-0.078,0.154-0.123,0.229	l2.737,2.713C38.747,55.896,39,56,39.263,56c0.032,0,0.065-0.002,0.099-0.005c0.297-0.029,0.564-0.189,0.731-0.437l1.592-2.366	l1.591,2.365c0.373,0.553,1.287,0.553,1.66,0l1.867-2.776l2.805,1.853c0.306,0.203,0.699,0.221,1.024,0.047	c0.324-0.175,0.526-0.513,0.526-0.881v-2.877l2.944-0.974c0.298-0.098,0.531-0.329,0.633-0.625c0.102-0.297,0.058-0.623-0.116-0.882	l-1.858-2.764l2.791-1.845C55.831,43.649,56,43.336,56,43s-0.169-0.649-0.448-0.834l-2.37-1.566l2.369-1.565	c0.379-0.25,0.542-0.723,0.397-1.152c-0.005-0.014-0.101-0.283-0.3-0.704C53.993,37.148,52.36,37.927,51.38,39.409z" opacity=".15"/><path fill="#fff" d="M32,37.67c-3.471-0.009-8.624-0.99-11.614-1.628C19.149,35.778,18,36.801,18,38.166v7.668	c0,1.365,1.148,2.389,2.386,2.124C23.387,47.317,28.563,46.33,32,46.33s8.613,0.987,11.614,1.628C44.852,48.223,46,47.199,46,45.834	v-7.668c0-1.365-1.149-2.388-2.386-2.124C40.624,36.68,35.471,37.661,32,37.67z"/><path fill="#a0effe" d="M22,47.627c1.212-0.242,2.586-0.497,4-0.718V37.09c-1.415-0.22-2.789-0.475-4-0.717V47.627z"/><path fill="#a0effe" d="M34,46.426v-8.854c-0.702,0.056-1.383,0.096-2,0.098c-0.617-0.002-1.298-0.042-2-0.098v8.854 c0.703-0.055,1.385-0.096,2-0.096S33.297,46.37,34,46.426z"/><path fill="#a0effe" d="M42,36.373c-1.211,0.241-2.584,0.496-3.999,0.717l0.017,9.822c1.407,0.22,2.775,0.474,3.982,0.715 V36.373z"/><path fill="#9c34c2" d="M26.088,12c-1.396,0-2.411,1.306-1.993,2.588C25.148,17.821,28.173,20,32,20s6.852-2.179,7.905-5.412	C40.323,13.306,39.308,12,37.912,12H26.088z"/><path fill="none" stroke="#fff" stroke-linecap="round" stroke-linejoin="round" stroke-miterlimit="10" stroke-width="3" d="M28.037,10.337C29.666,9.164,30.653,8.5,32,8.5"/></svg>